<?xml version="1.0" standalone="no"?>
<!DOCTYPE svg PUBLIC "-//W3C//DTD SVG 20010904//EN"
 "http://www.w3.org/TR/2001/REC-SVG-20010904/DTD/svg10.dtd">
<svg version="1.0" xmlns="http://www.w3.org/2000/svg"
 width="199.000000pt" height="199.000000pt" viewBox="0 0 199.000000 199.000000"
 preserveAspectRatio="xMidYMid meet">
<metadata>
Created by potrace 1.14, written by Peter Selinger 2001-2017
</metadata>
<g transform="translate(0.000000,199.000000) scale(0.100000,-0.100000)"
fill="#000000" stroke="none">
<path d="M1034 1980 c-205 -31 -398 -154 -523 -334 -28 -41 -51 -77 -51 -81 0
-4 -14 -24 -32 -44 l-32 -36 -140 -1 c-153 -1 -190 -11 -222 -59 -26 -39 -29
-98 -8 -134 31 -52 72 -64 211 -64 117 1 142 -5 128 -27 -4 -6 -13 -5 -24 2
-25 16 -51 3 -51 -25 0 -47 47 -57 68 -14 9 19 11 17 11 -20 2 -90 44 -229
103 -341 l29 -53 -251 -251 c-137 -137 -250 -255 -250 -262 1 -42 -36 -41
1005 -42 l985 -2 0 695 0 695 -27 -17 c-16 -10 -37 -24 -48 -32 -27 -18 -28
-18 -50 25 -110 209 -308 361 -540 412 -64 15 -226 20 -291 10z"/>
<path d="M76 1194 c-20 -20 -20 -27 2 -47 17 -15 20 -15 41 0 20 14 25 14 32
1 5 -9 22 -13 46 -12 61 3 62 3 73 23 7 15 6 23 -6 35 -21 21 -97 21 -115 0
-11 -14 -13 -14 -21 0 -11 20 -32 20 -52 0z"/>
<path d="M381 792 c-12 -23 4 -52 29 -52 25 0 41 30 29 53 -13 22 -46 22 -58
-1z"/>
<path d="M235 655 c-83 -82 -96 -99 -91 -120 11 -45 43 -30 137 62 97 94 112
119 83 140 -10 7 -21 13 -25 13 -4 0 -51 -43 -104 -95z"/>
<path d="M92 508 c-20 -20 -14 -47 12 -54 32 -8 46 2 46 31 0 32 -35 46 -58
23z"/>
</g>
</svg>
